<?xml version="1.0" standalone="no"?>
<!DOCTYPE svg PUBLIC "-//W3C//DTD SVG 20010904//EN"
 "http://www.w3.org/TR/2001/REC-SVG-20010904/DTD/svg10.dtd">
<svg version="1.0" xmlns="http://www.w3.org/2000/svg"
 width="20pt" height="20pt" viewBox="0 0 225.000000 225.000000"
 preserveAspectRatio="xMidYMid meet">

<g transform="translate(0.000000,225.000000) scale(0.100000,-0.100000)"
fill="#da5c5c" stroke="none">
<path d="M175 2216 c-64 -29 -112 -77 -141 -141 l-24 -50 0 -900 c0 -883 1
-901 21 -945 32 -72 65 -106 130 -139 l62 -31 902 0 902 0 62 31 c65 33 98 67
130 139 20 44 21 62 21 946 l0 901 -31 62 c-33 65 -67 98 -139 130 -44 20 -62
21 -945 21 l-900 0 -50 -24z m631 -375 c84 -40 86 -41 152 -31 88 13 231 12
310 0 62 -10 64 -10 145 30 54 27 102 43 139 47 56 6 58 5 69 -23 6 -16 13
-72 16 -124 4 -85 8 -101 38 -150 47 -79 68 -159 69 -265 0 -49 -3 -107 -8
-127 l-7 -38 133 0 c73 0 140 -5 148 -10 10 -6 -35 -10 -137 -10 -163 0 -205
-14 -75 -25 108 -9 184 -23 197 -36 7 -9 3 -10 -15 -5 -14 4 -81 12 -148 18
-119 12 -124 11 -135 -7 -47 -86 -191 -181 -309 -205 l-56 -11 23 -42 c21 -38
23 -59 29 -241 4 -158 9 -202 21 -216 23 -26 18 -31 -22 -24 -49 9 -89 29 -97
49 -3 9 -6 74 -7 143 -1 70 -4 138 -8 152 -12 42 -22 -166 -12 -265 5 -49 7
-92 6 -93 -8 -9 -66 11 -90 29 -25 20 -25 22 -26 172 -1 211 -15 228 -22 27
-3 -91 -8 -172 -11 -180 -9 -23 -40 -39 -87 -46 -39 -7 -42 -6 -33 12 13 28
18 372 5 359 -6 -6 -14 -82 -18 -170 l-8 -159 -30 -17 c-16 -9 -45 -20 -63
-24 l-34 -7 16 31 c12 22 16 59 16 141 l0 110 -70 0 c-76 0 -129 17 -169 53
-13 12 -52 65 -87 119 -34 53 -71 101 -81 106 -10 6 -15 14 -11 18 14 13 93
-26 152 -76 83 -71 103 -80 191 -80 66 0 75 2 75 18 0 11 14 38 31 61 17 24
29 44 27 45 -2 2 -32 9 -68 15 -126 24 -253 102 -313 191 l-17 24 -122 -12
c-68 -6 -134 -14 -148 -18 -18 -5 -22 -4 -15 5 13 13 89 27 198 36 124 11 78
25 -81 25 -99 0 -142 3 -132 10 8 5 74 10 147 10 l132 0 -10 32 c-36 125 -15
288 49 381 34 51 35 53 33 148 -1 54 1 114 5 134 l7 38 59 -6 c41 -4 86 -18
144 -46z"/>
<path d="M638 763 c7 -3 16 -2 19 1 4 3 -2 6 -13 5 -11 0 -14 -3 -6 -6z"/>
<path d="M675 730 c3 -5 10 -10 16 -10 5 0 9 5 9 10 0 6 -7 10 -16 10 -8 0
-12 -4 -9 -10z"/>
<path d="M730 720 c0 -5 5 -10 10 -10 6 0 10 5 10 10 0 6 -4 10 -10 10 -5 0
-10 -4 -10 -10z"/>
<path d="M790 720 c0 -5 5 -10 10 -10 6 0 10 5 10 10 0 6 -4 10 -10 10 -5 0
-10 -4 -10 -10z"/>
<path d="M848 713 c7 -3 16 -2 19 1 4 3 -2 6 -13 5 -11 0 -14 -3 -6 -6z"/>
</g>
</svg>
