<?xml version="1.0" standalone="no"?>
<!DOCTYPE svg PUBLIC "-//W3C//DTD SVG 20010904//EN"
 "http://www.w3.org/TR/2001/REC-SVG-20010904/DTD/svg10.dtd">
<svg version="1.0" xmlns="http://www.w3.org/2000/svg"
 width="20pt" height="20pt" viewBox="0 0 225.000000 225.000000"
 preserveAspectRatio="xMidYMid meet">

<g transform="translate(0.000000,225.000000) scale(0.100000,-0.100000)"
fill="#da5c5c" stroke="none">
<path d="M350 2230 c-126 -22 -245 -114 -303 -237 l-32 -68 0 -806 0 -805 38
-76 c43 -88 107 -152 195 -195 l57 -28 820 0 820 0 57 28 c88 43 152 107 195
195 l38 76 0 805 0 806 -32 67 c-61 129 -174 216 -308 238 -71 12 -1477 12
-1545 0z m256 -379 c74 -34 110 -107 95 -190 -11 -57 -37 -91 -91 -118 -81
-42 -198 -22 -248 42 -70 89 -33 225 73 271 43 19 123 17 171 -5z m1034 -467
c107 -30 200 -124 236 -237 20 -64 36 -378 32 -634 l-3 -178 -175 0 -175 0 -5
340 c-5 331 -6 341 -28 383 -47 88 -177 99 -248 20 -54 -58 -55 -65 -58 -416
-2 -180 -4 -328 -5 -330 -1 -1 -79 -1 -173 0 l-173 3 -3 523 -2 522 175 0
c197 0 176 10 179 -85 0 -25 3 -45 5 -45 2 0 21 20 43 45 38 44 93 79 148 96
44 13 172 9 230 -7z m-942 -526 l-3 -523 -172 -3 -173 -2 0 525 0 525 175 0
175 0 -2 -522z"/>
</g>
</svg>
